<?xml version="1.0" encoding="UTF-8" standalone="no"?>
<!-- Generator: Adobe Illustrator 17.0.0, SVG Export Plug-In . SVG Version: 6.00 Build 0)  -->

<svg
   xmlns:dc="http://purl.org/dc/elements/1.1/"
   xmlns:cc="http://creativecommons.org/ns#"
   xmlns:rdf="http://www.w3.org/1999/02/22-rdf-syntax-ns#"
   xmlns:svg="http://www.w3.org/2000/svg"
   xmlns="http://www.w3.org/2000/svg"
   xmlns:sodipodi="http://sodipodi.sourceforge.net/DTD/sodipodi-0.dtd"
   xmlns:inkscape="http://www.inkscape.org/namespaces/inkscape"
   version="1.1"
   id="Layer_1"
   x="0px"
   y="0px"
   width="1920px"
   height="1920px"
   viewBox="0 0 1920 1920"
   enable-background="new 0 0 1920 1920"
   xml:space="preserve"
   inkscape:version="0.48.2 r9819"
   sodipodi:docname="uE019-square.svg"><metadata
   id="metadata2992"><rdf:RDF><cc:Work
       rdf:about=""><dc:format>image/svg+xml</dc:format><dc:type
         rdf:resource="http://purl.org/dc/dcmitype/StillImage" /><dc:title></dc:title></cc:Work></rdf:RDF></metadata><defs
   id="defs2990" /><sodipodi:namedview
   pagecolor="#ffffff"
   bordercolor="#666666"
   borderopacity="1"
   objecttolerance="10"
   gridtolerance="10"
   guidetolerance="10"
   inkscape:pageopacity="0"
   inkscape:pageshadow="2"
   inkscape:window-width="640"
   inkscape:window-height="480"
   id="namedview2988"
   showgrid="false"
   inkscape:zoom="0.12291667"
   inkscape:cx="960"
   inkscape:cy="449.08427"
   inkscape:window-x="0"
   inkscape:window-y="0"
   inkscape:window-maximized="0"
   inkscape:current-layer="Layer_1" />

<g
   id="g3"
   transform="matrix(3.0021196,0,0,3.0021196,183.32216,476.20302)"><path
     inkscape:connector-curvature="0"
     d="m 500.281,443.719 -96.875,-96.906 c -15.563,21.875 -34.688,41 -56.563,56.594 l 96.875,96.875 c 15.625,15.625 40.938,15.625 56.563,0 15.625,-15.625 15.625,-40.938 0,-56.563 z"
     id="path5" /><path
     inkscape:connector-curvature="0"
     d="M 416,208 C 416,93.125 322.875,0 208,0 93.125,0 0,93.125 0,208 0,322.875 93.125,416 208,416 322.875,416 416,322.875 416,208 z m -183.75,99.625 c -2.094,11.594 -1.281,23.844 -5.844,34.938 -3.75,7.5 0.078,16.406 -2.75,23.844 C 218.422,366.938 213.359,368 208,368 119.781,368 48,296.219 48,208 c 0,-34.688 11.375,-66.594 30.203,-92.844 -0.547,2.219 -1.109,4.438 -1.156,6.75 -0.547,8.734 0.969,18.188 6.891,24.969 3.016,3.953 8.344,5.156 11.172,9.328 3.625,5.063 10.922,5.078 14.484,10.234 3.219,4.406 6.75,8.594 10.094,12.922 2.438,3.031 3.031,7.609 6.797,9.438 8.547,4.344 19.031,3.125 27.141,8.578 14.094,8.234 27.688,17.688 42.984,23.625 5.266,2.453 13.109,-0.344 16.453,5.547 2.516,6.969 -5.625,11.109 -6.781,17.328 -0.891,3.938 0.719,8.594 -2.281,11.844 3.156,7.813 8.344,14.594 12.953,21.563 3.828,5.594 10.609,8.125 14.625,13.5 2.734,5.156 1.202,11.312 0.671,16.843 z M 244,363.563 c 2.141,-4.344 3.906,-8.875 6.969,-12.688 1.625,-1.844 1,-5.469 4.031,-6 4.406,-0.969 10.375,-0.5 12.188,-5.719 -0.656,-0.656 -1.25,-1.344 -1.844,-1.969 2.75,-0.063 5.469,-0.313 8.219,-0.281 6.219,-8.094 13.594,-15.375 18.063,-24.625 2.594,-4.875 9,-4.938 12.375,-8.969 2.844,-3.094 6.188,-5.969 8.125,-9.781 1.313,-5.406 -0.656,-11.75 3.125,-16.438 3.656,-4.219 8.563,-7.875 9.531,-13.719 1.094,-3.563 -1.188,-7.094 -4.375,-8.531 -10.531,-5.313 -23.344,-4.281 -33.25,-11.125 -3.031,-2.75 -1.969,-7.609 -4.594,-10.688 -3.438,-4.547 -9.438,-5.328 -14.5,-6.922 -4.125,-1.078 -7.031,-4.391 -10.813,-6.156 -9.188,-4.578 -19.531,-6.875 -29.781,-6.297 -4.031,0.172 -8.188,1.719 -10.281,5.391 -1.063,2.188 -3.578,0.75 -5.172,0.109 -8.203,-4.047 -17.109,-8.219 -22.125,-16.281 -1.047,-1.984 -3.125,-2.875 -5.031,-3.781 0.984,-4.422 5,-7.781 4.594,-12.547 -5.203,-1.75 -10.453,1.016 -15.703,0.406 -3.234,-0.484 -2.875,-4.469 -3.203,-6.906 -0.641,-4.828 0.453,-10.281 4.75,-13.172 5.297,-3.844 12.375,-7.953 19.016,-5.094 5.594,2.391 5.703,9.906 10.969,12.656 3.109,-5.266 -0.875,-11.094 -0.922,-16.609 3.031,-4.469 8.016,-6.875 11.875,-10.469 2.828,-2.188 -1.203,-5.844 1.219,-8.234 4.734,-6.469 9.688,-13.266 16.797,-17.281 4.734,-2.766 10.281,-0.328 15.406,-0.719 4,-1.313 6.156,-5.453 9.813,-7.328 5.375,-3.172 11.844,-2.609 17.719,-1.609 -1.969,-3.922 -3.656,-10.031 -8.719,-10.547 -4.031,1.484 -5.063,7.031 -9.469,8.313 -4.156,2.422 -8.219,-0.969 -10.938,-3.906 -4.844,1.984 -9.797,3.859 -14.969,4.828 10.625,-4.703 22.281,-6.813 32.656,-12.109 1.531,-0.906 4.281,-2.344 2.969,-4.484 -3.25,-5.969 -10.313,-8.578 -13.625,-14.531 -2.156,-3.125 -2.438,-7.406 -5.344,-9.953 -4.156,-1.813 -8.469,2.453 -12.656,0.547 -5.219,-2.531 -8.859,-7.859 -14.75,-9.063 -3.25,-0.734 -7.516,-1.547 -10.047,1.172 -1.781,5.734 2.406,11.141 2.656,16.797 -2.297,4.438 -3.563,9.234 -5.109,13.953 -0.969,3.375 -4.656,4.828 -7.891,4.078 -0.156,-3.281 1.75,-8.172 -2.359,-9.734 -7.781,-3.141 -15.891,-5.563 -23.516,-9.047 -5.016,-1.734 -10.094,-7.344 -6.359,-12.625 4.813,-6.469 12.563,-9.641 18.688,-14.563 0.547,-0.422 1.016,-0.984 1.516,-1.484 C 195.938,49.141 201.813,48 208,48 c 3.922,0 7.594,0.875 11.453,1.156 -2.078,1.156 -4.172,2.297 -6,3.828 3.031,1.516 6.484,0.906 9.734,1.406 7.734,0.391 12.625,8.5 20.375,8.578 1.594,-3.938 -4.781,-3.141 -5.484,-6.359 3.016,-0.328 6.359,1.125 9.109,-0.453 0.281,-1.484 -0.344,-2.359 -1.188,-3.094 9.922,2.438 19.484,5.703 28.594,9.906 -0.031,0.75 0.047,1.5 -0.531,2.297 -1.969,3.844 -9.063,2.297 -9.219,7.141 2.75,7.047 8.188,12.906 13.906,17.766 3.938,2.906 10.156,5.672 14.438,1.922 3.656,-3.563 4.969,-9.656 8.688,-13.031 C 341.75,108.188 368,154.953 368,208 c 0,75.797 -53.125,139.125 -124,155.563 z"
     id="path7" /></g></svg>