<?xml version="1.0" encoding="UTF-8" standalone="no"?>
<!-- Generator: Adobe Illustrator 17.0.0, SVG Export Plug-In . SVG Version: 6.00 Build 0)  -->

<svg
   xmlns:dc="http://purl.org/dc/elements/1.1/"
   xmlns:cc="http://creativecommons.org/ns#"
   xmlns:rdf="http://www.w3.org/1999/02/22-rdf-syntax-ns#"
   xmlns:svg="http://www.w3.org/2000/svg"
   xmlns="http://www.w3.org/2000/svg"
   xmlns:sodipodi="http://sodipodi.sourceforge.net/DTD/sodipodi-0.dtd"
   xmlns:inkscape="http://www.inkscape.org/namespaces/inkscape"
   version="1.1"
   id="Layer_1"
   x="0px"
   y="0px"
   width="1920px"
   height="1920px"
   viewBox="0 0 1920 1920"
   enable-background="new 0 0 1920 1920"
   xml:space="preserve"
   inkscape:version="0.48.2 r9819"
   sodipodi:docname="uE019-square.svg"><metadata
   id="metadata9"><rdf:RDF><cc:Work
       rdf:about=""><dc:format>image/svg+xml</dc:format><dc:type
         rdf:resource="http://purl.org/dc/dcmitype/StillImage" /><dc:title></dc:title></cc:Work></rdf:RDF></metadata><defs
   id="defs7" /><sodipodi:namedview
   pagecolor="#ffffff"
   bordercolor="#666666"
   borderopacity="1"
   objecttolerance="10"
   gridtolerance="10"
   guidetolerance="10"
   inkscape:pageopacity="0"
   inkscape:pageshadow="2"
   inkscape:window-width="640"
   inkscape:window-height="480"
   id="namedview5"
   showgrid="false"
   inkscape:zoom="0.12291667"
   inkscape:cx="960"
   inkscape:cy="960"
   inkscape:window-x="0"
   inkscape:window-y="0"
   inkscape:window-maximized="0"
   inkscape:current-layer="Layer_1" />

<circle
   transform="matrix(58.663391,0,0,58.663391,207.20953,483.29112)"
   style="fill:#333333"
   sodipodi:ry="2.5"
   sodipodi:rx="2.5"
   sodipodi:cy="2.5"
   sodipodi:cx="14.5"
   cx="14.5"
   cy="2.5"
   r="2.5"
   id="circle3" /><path
   style="fill:#333333"
   inkscape:connector-curvature="0"
   d="m 1400.0121,1256.1813 c -28.4516,-13.0232 -217.5237,-106.8848 -217.5237,-106.8848 0,0 -67.2283,-142.9039 -101.7223,-221.16093 -32.5582,-73.73993 -56.1409,-92.86414 -102.66095,-92.86414 -17.18842,0 -52.91445,0 -71.51065,0 -37.60324,0 -51.33047,13.72724 -74.26793,26.57454 L 638.85473,1026.5727 c -17.12969,9.8555 -27.92376,24.3454 -34.61138,44.9949 l -41.41634,278.827 c -5.92501,44.4668 17.42302,63.2393 43.99754,68.7536 21.52948,4.4583 54.0877,-6.3943 60.48192,-37.6033 5.27979,-25.6945 44.40826,-253.7777 44.40826,-253.7777 l 126.36089,-96.9707 c -20.76677,96.6773 -41.94435,202.7994 -48.98388,238.6428 -12.02608,61.5964 18.77225,108.4685 42.88288,144.9572 22.1161,33.4381 307.92428,483.9142 345.64478,532.9568 37.7205,49.0427 72.0386,73.2706 124.6596,43.9976 43.9975,-24.4627 36.6647,-80.6623 12.202,-122.1959 -24.4626,-41.5337 -312.8518,-510.8408 -312.8518,-510.8408 l 48.5146,-208.959 c 0,0 33.4382,47.6348 50.7438,74.5612 8.3302,12.8473 16.8364,17.775 39.4805,30.2703 26.5158,14.6659 155.7513,73.3293 195.0558,90.8695 34.7873,15.5459 78.0221,21.5296 95.4452,-9.2688 17.4817,-30.7396 -4.8103,-67.6388 -30.857,-79.6061 z"
   id="path5" /><path
   style="fill:#333333"
   inkscape:connector-curvature="0"
   d="m 762.04795,1445.7226 -58.6635,205.9673 c 0,0 -121.84382,176.4008 -155.75127,225.7954 -25.40125,37.1339 -44.58417,82.3047 -0.99728,115.2736 48.86661,37.0164 87.99504,-11.1462 113.33769,-39.6565 23.23067,-26.2226 117.56147,-158.0979 144.31191,-191.8294 17.775,-22.4681 27.63053,-41.3576 35.19804,-60.1886 5.04501,-12.6126 24.22795,-64.8817 36.48866,-98.5545 L 762.04795,1445.7226 z"
   id="path7" /></svg>